# xmcd
#
# Track frame offsets: 
#        150
#        20748
#        41346
#        61944
#        82542
#
# Disc length: 1369 seconds
#
# Revision: 0
# Processed by: cddbd v1.5.2PL0 Copyright (c) Steve Scherf et al.
# Submitted via: ExactAudioCopy v1.0b6
#
DISCID=2d055705
DTITLE=The Afters - All That I Am (Christian World Soundtraks) (2006)
DYEAR=2006
DGENRE=Performance Trax
TTITLE0=All That I Am - Demonstration
TTITLE1=All That I Am - Performance Track - Original Key with BGV's [D
TTITLE1=b]
TTITLE2=All That I Am - Performance Track - Higher Key with BGV's [E]
TTITLE3=All That I Am - Performance Track - Lower Key with BGV's [Bb]
TTITLE4=All That I Am - Performance Track - Original Key without BGV's
TTITLE4=[Db]
EXTD=
EXTT0=
EXTT1=
EXTT2=
EXTT3=
EXTT4=
PLAYORDER=
